<?xml version="1.0" encoding="utf-8"?>
<!-- Generator: Adobe Illustrator 15.1.0, SVG Export Plug-In . SVG Version: 6.00 Build 0)  -->
<!DOCTYPE svg PUBLIC "-//W3C//DTD SVG 1.1//EN" "http://www.w3.org/Graphics/SVG/1.1/DTD/svg11.dtd">
<svg version="1.1" id="Layer_1" xmlns="http://www.w3.org/2000/svg" xmlns:xlink="http://www.w3.org/1999/xlink" x="0px" y="0px"
	 width="1280px" height="372.09px" viewBox="0 0 1280 372.09" enable-background="new 0 0 1280 372.09" xml:space="preserve">
<g>
	<path fill="#D52B1E" d="M292.439,66.599c-16.292,0-38.9,6.88-55.309,29.201c-3.012,4.074-5.488,9.26-6.937,14.363
		c-5.016,17.387-1.483,36.537,9.523,51.213c8.442,11.292,19.207,19.754,28.707,27.2c4.654,3.644,14.505,12.859,17.678,16.767
		c4.762,5.863,8.368,9.342,12.649,22.267c2.596,7.849,2.978,18.147,1.702,24.006c29.761-29.814,62.245-68.529,62.245-110.605
		C362.698,92.643,327.668,66.599,292.439,66.599"/>
	<path fill="#B6BF00" d="M230.324,228.705c-12.361-16.973-26.652-27.277-38.444-38.15c-5.146-4.709-10.774-8.229-14.96-12.413
		c-19.993-20.041-29.352-44.782-24.625-75.208c3.731-23.873,15.486-39.539,29.664-51.061c-16.932-12.534-37.029-19.31-59.729-19.31
		c-56.36,0-103.457,45.688-102.032,102.038C22.765,236.328,148.999,322.963,201,340.72c27.83-14.414,42.599-41.276,42.599-68.827
		C243.598,251.793,235.052,235.194,230.324,228.705"/>
	<path fill="#D52B1E" d="M450.772,223.462c9.781,6.846,29.082,15.633,42.766,15.633c10.521,0,19.548-3.904,19.548-15.144
		c0-10.993-14.171-14.911-28.585-20.527c-16.626-6.363-33.241-16.376-33.241-42.773c0-35.183,26.148-53.75,64.042-53.75
		c24.914,0,47.157,12.445,58.636,25.655l-24.924,25.893c-11.247-9.52-23.705-16.611-35.681-16.611
		c-9.777,0-17.099,3.909-17.099,12.702c0,11.983,10.503,14.921,28.342,22.25c17.103,7.073,34.694,17.354,34.694,42.511
		c0,34.212-27.845,56.225-67.44,56.225c-27.862,0-51.326-11.5-60.604-18.822L450.772,223.462z"/>
	<path fill="#D52B1E" d="M647.571,211.726c1.466-7.822,1.959-14.897,1.959-20.287c0-11.726-3.665-18.81-12.228-18.81
		c-11.469,0-19.058,11.233-22.723,31.521c-1.476,7.832-2.195,16.144-2.195,22.493c0,10.747,2.942,19.548,11.982,19.548
		C636.32,246.191,643.407,235.67,647.571,211.726 M644.153,143.306c17.355,0,47.89,6.593,47.89,47.157
		c0,5.38-0.24,11.74-1.227,18.339c-7.555,47.899-37.869,67.197-72.572,67.197c-30.304,0-47.403-17.582-47.403-48.869
		c0-5.863,0.236-12.952,1.456-19.794C581.334,156.015,616.049,143.306,644.153,143.306"/>
	<path fill="#D52B1E" d="M739.788,272.101h-40.82l17.835-101.424l0.979-23.71h32.746l0.746,17.353
		c9.041-15.392,21.732-21.014,32.007-21.014c7.088,0,14.656,1.708,19.547,4.889l-11.732,33.967
		c-4.637-2.447-10.514-4.387-16.616-4.387c-10.514,0-18.814,6.337-21.007,17.825L739.788,272.101z"/>
	<polygon fill="#D52B1E" points="794.082,272.101 816.074,146.967 856.909,146.967 834.903,272.101 	"/>
	<path fill="#D52B1E" d="M846.143,93.625c11.479,0,18.575,7.82,18.575,17.352c0,12.95-11.24,23.217-25.664,23.217
		c-11.732,0-18.335-7.098-18.335-16.859C820.719,104.634,831.485,93.625,846.143,93.625"/>
	<path fill="#D52B1E" d="M944.661,173.852c-2.691-1.217-6.603-1.954-11-1.954c-22.246,0-30.301,33.475-30.301,53.526
		c0,11.732,2.686,21.253,14.411,21.253c8.314,0,14.178-5.38,16.623-13.931L944.661,173.852z M972.023,245.701l-1.698,26.4H935.86
		v-11.482l-1.22-0.25c-8.555,10.024-19.548,15.383-34.212,15.383c-26.149,0-37.883-19.294-37.883-45.698
		c0-50.091,27.863-86.75,78.944-86.75c10.246,0,28.581,2.443,46.917,9.775L972.023,245.701z"/>
	<path fill="#D52B1E" d="M993.126,272.101l17.589-99.958l1.473-25.176h33.719l0.479,13.448
		c9.541-10.517,22.254-17.109,38.616-17.109c20.294,0,32.52,9.286,32.773,30.299c0,3.913-0.5,8.808-1.227,13.441l-15.164,85.055
		h-40.808l12.706-73.074c0.732-3.904,1.944-9.531,1.944-14.183c0-4.881-1.944-10.265-9.287-10.265
		c-10.5,0-16.609,7.834-18.328,18.089l-13.932,79.433H993.126z"/>
	<path fill="#D52B1E" d="M1210.204,173.852c-2.685-1.217-6.596-1.954-11-1.954c-22.232,0-30.308,33.475-30.308,53.526
		c0,11.732,2.691,21.253,14.418,21.253c8.328,0,14.178-5.38,16.622-13.931L1210.204,173.852z M1237.58,245.701l-1.719,26.4h-34.452
		v-11.482l-1.219-0.25c-8.548,10.024-19.555,15.383-34.219,15.383c-26.15,0-37.883-19.294-37.883-45.698
		c0-50.091,27.855-86.75,78.944-86.75c10.253,0,28.581,2.443,46.916,9.775L1237.58,245.701z"/>
</g>
</svg>
